<?xml version="1.0" encoding="UTF-8"?>
<svg xmlns="http://www.w3.org/2000/svg" id="Layer_1" data-name="Layer 1" viewBox="0 0 24 24">
  <path d="m14.85,15.452l-.875.874c-.195.195-.195.512,0,.707.098.098.226.146.354.146s.256-.049.354-.146l7.676-7.675c.195-.195.195-.512,0-.707s-.512-.195-.707,0l-.944.944L12.918,1.807l.944-.944c.195-.195.195-.512,0-.707s-.512-.195-.707,0l-7.676,7.676c-.195.195-.195.512,0,.707.098.098.226.146.354.146s.256-.049.354-.146l.875-.875,3.534,3.534L.146,21.646c-.195.195-.195.512,0,.707.098.098.226.146.354.146s.256-.049.354-.146l10.449-10.449,3.547,3.547Zm3.109-7.19l-4.442,4.442-3.708-3.708,4.443-4.442,3.708,3.708Zm-2.402,6.483l-1.333-1.333,4.442-4.442,1.333,1.333-4.443,4.442Zm-3.346-12.231l1.333,1.333-4.443,4.442-1.333-1.333,4.442-4.442Zm11.289,20.486h-.5c0-1.654-1.346-3-3-3h-7c-1.654,0-3,1.346-3,3h-.5c-.276,0-.5.224-.5.5s.224.5.5.5h14c.276,0,.5-.224.5-.5s-.224-.5-.5-.5Zm-10.5-2h7c1.103,0,2,.897,2,2h-11c0-1.103.897-2,2-2Z"/>
</svg>
