<svg width="20" height="20" viewBox="0 0 20 20" fill="none" xmlns="http://www.w3.org/2000/svg">
<path d="M6.66666 4.79166C6.325 4.79166 6.04166 4.50832 6.04166 4.16666V1.66666C6.04166 1.32499 6.325 1.04166 6.66666 1.04166C7.00833 1.04166 7.29166 1.32499 7.29166 1.66666V4.16666C7.29166 4.50832 7.00833 4.79166 6.66666 4.79166Z" fill="#0072FF"/>
<path d="M13.3333 4.79166C12.9917 4.79166 12.7083 4.50832 12.7083 4.16666V1.66666C12.7083 1.32499 12.9917 1.04166 13.3333 1.04166C13.675 1.04166 13.9583 1.32499 13.9583 1.66666V4.16666C13.9583 4.50832 13.675 4.79166 13.3333 4.79166Z" fill="#0072FF"/>
<path d="M7.08333 12.0833C6.975 12.0833 6.86666 12.0667 6.76666 12.0167C6.66666 11.975 6.57499 11.9167 6.49166 11.8417C6.34166 11.6833 6.25 11.4667 6.25 11.25C6.25 11.1417 6.275 11.0333 6.31667 10.9333C6.35833 10.8333 6.41666 10.7417 6.49166 10.6583C6.57499 10.5833 6.66666 10.525 6.76666 10.4833C7.06666 10.3583 7.44167 10.425 7.67501 10.6583C7.75001 10.7417 7.80833 10.8333 7.85 10.9333C7.89166 11.0333 7.91667 11.1417 7.91667 11.25C7.91667 11.4667 7.82501 11.6833 7.67501 11.8417C7.51667 11.9917 7.3 12.0833 7.08333 12.0833Z" fill="#0072FF"/>
<path d="M10 12.0833C9.78333 12.0833 9.56666 11.9916 9.40833 11.8416C9.33333 11.7583 9.275 11.6667 9.23333 11.5667C9.19167 11.4667 9.16666 11.3583 9.16666 11.25C9.16666 11.0333 9.25833 10.8167 9.40833 10.6583C9.64166 10.425 10.0083 10.35 10.3167 10.4833C10.4167 10.525 10.5083 10.5833 10.5917 10.6583C10.7417 10.8167 10.8333 11.0333 10.8333 11.25C10.8333 11.3583 10.8167 11.4667 10.7667 11.5667C10.725 11.6667 10.6667 11.7583 10.5917 11.8416C10.5083 11.9166 10.4167 11.975 10.3167 12.0167C10.2167 12.0667 10.1083 12.0833 10 12.0833Z" fill="#0072FF"/>
<path d="M7.08333 15C6.975 15 6.86666 14.975 6.76666 14.9333C6.66666 14.8917 6.57499 14.8333 6.49166 14.7583C6.34166 14.6 6.25 14.3916 6.25 14.1666C6.25 14.0583 6.275 13.95 6.31667 13.85C6.35833 13.7416 6.41666 13.6583 6.49166 13.575C6.57499 13.5 6.66666 13.4416 6.76666 13.4C7.06666 13.2666 7.44167 13.3416 7.67501 13.575C7.75001 13.6583 7.80833 13.7416 7.85 13.85C7.89166 13.95 7.91667 14.0583 7.91667 14.1666C7.91667 14.3916 7.82501 14.6 7.67501 14.7583C7.51667 14.9083 7.3 15 7.08333 15Z" fill="#0072FF"/>
<path d="M17.0833 8.19998H2.91667C2.57501 8.19998 2.29167 7.91665 2.29167 7.57498C2.29167 7.23331 2.57501 6.94998 2.91667 6.94998H17.0833C17.425 6.94998 17.7083 7.23331 17.7083 7.57498C17.7083 7.91665 17.425 8.19998 17.0833 8.19998Z" fill="#0072FF"/>
<path d="M15 19.7917C12.8167 19.7917 11.0417 18.0167 11.0417 15.8333C11.0417 13.65 12.8167 11.875 15 11.875C17.1833 11.875 18.9583 13.65 18.9583 15.8333C18.9583 18.0167 17.1833 19.7917 15 19.7917ZM15 13.125C13.5083 13.125 12.2917 14.3417 12.2917 15.8333C12.2917 17.325 13.5083 18.5417 15 18.5417C16.4917 18.5417 17.7083 17.325 17.7083 15.8333C17.7083 14.3417 16.4917 13.125 15 13.125Z" fill="#0072FF"/>
<path d="M16.2417 16.4999H13.75C13.4083 16.4999 13.125 16.2166 13.125 15.8749C13.125 15.5333 13.4083 15.2499 13.75 15.2499H16.2417C16.5833 15.2499 16.8667 15.5333 16.8667 15.8749C16.8667 16.2166 16.5917 16.4999 16.2417 16.4999Z" fill="#0072FF"/>
<path d="M15 17.775C14.6583 17.775 14.375 17.4917 14.375 17.15V14.6583C14.375 14.3167 14.6583 14.0333 15 14.0333C15.3417 14.0333 15.625 14.3167 15.625 14.6583V17.15C15.625 17.4917 15.3417 17.775 15 17.775Z" fill="#0072FF"/>
<path d="M12.8083 18.9583H6.66667C3.625 18.9583 1.875 17.2083 1.875 14.1667V7.08332C1.875 4.04166 3.625 2.29166 6.66667 2.29166H13.3333C16.375 2.29166 18.125 4.04166 18.125 7.08332V13.6333C18.125 13.8916 17.9667 14.125 17.7167 14.2167C17.475 14.3083 17.2 14.2417 17.025 14.0417C16.5083 13.4583 15.7667 13.125 14.9917 13.125C13.5 13.125 12.2833 14.3417 12.2833 15.8333C12.2833 16.325 12.4167 16.8083 12.675 17.225C12.8167 17.475 13 17.6833 13.2 17.8583C13.4 18.025 13.475 18.3 13.3833 18.55C13.3083 18.7917 13.075 18.9583 12.8083 18.9583ZM6.66667 3.54166C4.28333 3.54166 3.125 4.69999 3.125 7.08332V14.1667C3.125 16.55 4.28333 17.7083 6.66667 17.7083H11.5167C11.2083 17.1417 11.0417 16.5 11.0417 15.8333C11.0417 13.65 12.8167 11.875 15 11.875C15.6583 11.875 16.3083 12.0417 16.875 12.35V7.08332C16.875 4.69999 15.7167 3.54166 13.3333 3.54166H6.66667Z" fill="#0072FF"/>
</svg>
